<svg xmlns="http://www.w3.org/2000/svg" viewBox="0 0 48 48"><defs><style>.cls-1{fill:#ebebeb;}.cls-2{fill:#00adef;}.cls-3{fill:#3f3f3f;}.cls-4{fill:#727171;}.cls-11,.cls-5{fill:#fff;}.cls-5,.cls-6{opacity:0.5;}.cls-6,.cls-9{fill:#595757;}.cls-7{fill:#efefef;}.cls-8{fill:#c9caca;}.cls-10{fill:#9fa0a0;}.cls-12{fill:none;}</style></defs><title>Artboard 11</title><g id="content"><rect class="cls-1" x="4" y="4" width="40" height="40" rx="8.33" ry="8.33"/><rect class="cls-2" x="5.67" y="5.67" width="36.67" height="36.67" rx="7.5" ry="7.5"/><path class="cls-3" d="M5.67,22.33v12.5a7.5,7.5,0,0,0,7.5,7.5H34.83a7.5,7.5,0,0,0,7.5-7.5V22.33Z"/><path class="cls-4" d="M24,31.29l11,4.35L24.22,40a.59.59,0,0,1-.44,0L13,35.64l11-4.35m0-.56a.42.42,0,0,0-.15,0l-11.4,4.5a.42.42,0,0,0,0,.77l11.1,4.44a1.15,1.15,0,0,0,.85,0L35.53,36a.42.42,0,0,0,0-.77l-11.35-4.5a.42.42,0,0,0-.15,0Z"/><path class="cls-5" d="M23.88,28.25l-11.4,4.5a.42.42,0,0,0,0,.77L23.58,38a1.15,1.15,0,0,0,.85,0l11.1-4.44a.42.42,0,0,0,0-.77l-11.35-4.5A.42.42,0,0,0,23.88,28.25Z"/><path class="cls-6" d="M29.35,25.94a6.13,6.13,0,0,0-2-10.78A6,6,0,0,0,26,14.93a6.13,6.13,0,0,0-4,11,.83.83,0,0,1,.33.66v.83H22.1a.21.21,0,0,0-.21.21v.81h0v.95h0v.95h0l1.94,1.77h0a1.1,1.1,0,0,0,1.11,1.1h1.24a1.1,1.1,0,0,0,1.09-1l2.2-1.85h0v-.52h0V29.4h0v-.52h0v-.42h0v-.52h0v-.29a.21.21,0,0,0-.21-.21H29V26.6A.82.82,0,0,1,29.35,25.94Z"/><path class="cls-7" d="M30.14,19.25a6.18,6.18,0,0,0-4.43-5.73,6,6,0,0,0-1.34-.24,6.13,6.13,0,0,0-4,11,.83.83,0,0,1,.33.66v3.48h2.08l4.62,0V24.95a.82.82,0,0,1,.32-.66A6.12,6.12,0,0,0,30.14,19.25Z"/><g id="_Group_" data-name="&lt;Group&gt;"><path id="_Compound_Path_" data-name="&lt;Compound Path&gt;" class="cls-8" d="M21.8,22a2,2,0,0,1-1.46-1.39.88.88,0,0,1,.23-.89.63.63,0,0,1,.68-.07c.36.16.69,1,1,2h0a1.61,1.61,0,0,0,1.46-.22,2,2,0,0,1-.22-.38c-.26-.59-.2-1.18.13-1.4a.74.74,0,0,1,.82,0A1.14,1.14,0,0,1,24.56,21a2,2,0,0,1-.22.38,1.61,1.61,0,0,0,1.47.21h0c.27-1,.59-1.81.95-2a.63.63,0,0,1,.68.06.88.88,0,0,1,.24.89,2,2,0,0,1-1.45,1.4,35,35,0,0,0-.72,3.93H25s.25-2,.66-3.79A2,2,0,0,1,24,21.71a2,2,0,0,1-1.66.39c.43,1.74.69,3.75.69,3.78h-.48A34.81,34.81,0,0,0,21.8,22ZM27,20c-.18.08-.38.61-.58,1.33a1.41,1.41,0,0,0,.83-.92.44.44,0,0,0-.07-.41l-.07,0Zm-6.08,0a.44.44,0,0,0-.07.41,1.41,1.41,0,0,0,.84.91c-.2-.71-.41-1.25-.59-1.32L21,20Zm3-.08c-.1.07-.14.42,0,.81A1.5,1.5,0,0,0,24,21a1.47,1.47,0,0,0,.11-.21c.17-.39.13-.74,0-.81a.36.36,0,0,0-.16,0A.2.2,0,0,0,23.86,20Z"/></g><path id="_Path_" data-name="&lt;Path&gt;" class="cls-4" d="M27.83,28.7,25.6,30.58H22.29l-2-1.86V26a.21.21,0,0,1,.21-.21l7.15,0a.21.21,0,0,1,.21.21Z"/><path id="_Path_2" data-name="&lt;Path&gt;" class="cls-9" d="M24.53,31.6H23.3a1.1,1.1,0,0,1-1.11-1.1h3.44A1.1,1.1,0,0,1,24.53,31.6Z"/><rect id="_Rectangle_" data-name="&lt;Rectangle&gt;" class="cls-10" x="20.24" y="26.29" width="7.58" height="0.52" transform="translate(48.16 53.02) rotate(179.78)"/><rect id="_Rectangle_2" data-name="&lt;Rectangle&gt;" class="cls-10" x="20.25" y="27.24" width="7.58" height="0.52" transform="translate(48.17 54.91) rotate(179.78)"/><rect id="_Rectangle_3" data-name="&lt;Rectangle&gt;" class="cls-10" x="20.25" y="28.19" width="7.58" height="0.52" transform="translate(48.18 56.8) rotate(179.78)"/><rect class="cls-7" x="31.57" y="13.67" width="0.62" height="2.36" rx="0.31" ry="0.31" transform="translate(28.8 -20.18) rotate(60)"/><rect class="cls-7" x="28.24" y="10.34" width="0.62" height="2.36" rx="0.31" ry="0.31" transform="translate(9.59 -12.73) rotate(30)"/><rect class="cls-7" x="23.7" y="9.13" width="0.62" height="2.36" rx="0.31" ry="0.31"/><rect class="cls-7" x="19.15" y="10.34" width="0.62" height="2.36" rx="0.31" ry="0.31" transform="translate(-3.15 11.27) rotate(-30)"/><rect class="cls-7" x="15.82" y="13.67" width="0.62" height="2.36" rx="0.31" ry="0.31" transform="translate(-4.8 21.39) rotate(-60)"/><path class="cls-11" d="M18.7,20.23a.83.83,0,0,1-.83-.83A6.14,6.14,0,0,1,24,13.27a.83.83,0,0,1,0,1.67,4.47,4.47,0,0,0-4.47,4.47A.83.83,0,0,1,18.7,20.23Z"/><rect class="cls-12" width="48" height="48"/></g></svg>